<svg width="72" height="72" viewBox="0 0 72 72" fill="none" xmlns="http://www.w3.org/2000/svg">
<mask id="path-1-inside-1_327_837" fill="white">
<path d="M72 36C72 55.8823 55.8823 72 36 72C16.1177 72 0 55.8823 0 36C0 16.1177 16.1177 0 36 0C55.8823 0 72 16.1177 72 36Z"/>
</mask>
<path d="M20 35C19.7239 35 19.5 35.2239 19.5 35.5C19.5 35.7761 19.7239 36 20 36V35ZM52 35.5L52.3494 35.8577C52.4457 35.7636 52.5 35.6346 52.5 35.5C52.5 35.3654 52.4457 35.2364 52.3494 35.1423L52 35.5ZM40.5758 23.6423C40.3782 23.4494 40.0617 23.4531 39.8687 23.6506C39.6758 23.8482 39.6795 24.1647 39.877 24.3577L40.5758 23.6423ZM39.877 46.6423C39.6795 46.8353 39.6758 47.1518 39.8687 47.3494C40.0617 47.5469 40.3782 47.5506 40.5758 47.3577L39.877 46.6423ZM20 36H52V35H20V36ZM52.3494 35.1423L40.5758 23.6423L39.877 24.3577L51.6506 35.8577L52.3494 35.1423ZM51.6506 35.1423L39.877 46.6423L40.5758 47.3577L52.3494 35.8577L51.6506 35.1423ZM71 36C71 55.33 55.33 71 36 71V73C56.4345 73 73 56.4345 73 36H71ZM36 71C16.67 71 1 55.33 1 36H-1C-1 56.4345 15.5655 73 36 73V71ZM1 36C1 16.67 16.67 1 36 1V-1C15.5655 -1 -1 15.5655 -1 36H1ZM36 1C55.33 1 71 16.67 71 36H73C73 15.5655 56.4345 -1 36 -1V1Z" fill="#ADAAA8" mask="url(#path-1-inside-1_327_837)"/>
</svg>
